<svg className="main-logo" viewBox="0 0 213 29" fill="none" xmlns="http://www.w3.org/2000/svg">
    <g clipPath="url(#clip0_3_496)">
        <path
            d="M100.383 7.4536L96.1695 3.31934H93.2319L89.018 7.4536L90.5285 8.9356L93.633 5.88801V23.2296H66.8713V25.3246H95.7683V5.88801L98.8746 8.9356L100.383 7.4536Z"
            fill="white"></path>
        <path
            d="M15.6201 16.9863C14.0758 16.9863 13.1741 17.8571 12.8529 18.9507H12.3346V17.0943H10.0413V28.4H12.3346V23.7224H12.8529C13.1599 24.8021 14.0616 25.537 15.6201 25.537C17.2549 25.537 19.0583 23.8565 19.0583 21.2634C19.0583 18.6703 17.2549 16.9863 15.6201 16.9863ZM14.5551 23.5865C13.1653 23.5865 12.3399 22.5416 12.3399 21.2634C12.3399 19.9851 13.1599 18.9385 14.5551 18.9385C15.9502 18.9385 16.7721 19.9834 16.7721 21.2634C16.7721 22.5434 15.9556 23.5865 14.5551 23.5865Z"
            fill="white"></path>
        <path
            d="M68.6782 3.20776C65.9731 3.20776 64.1697 4.88829 64.1697 7.48135C64.1697 10.0744 65.9731 11.7619 68.6782 11.7619C71.3833 11.7619 73.1867 10.0831 73.1867 7.48831C73.1867 4.89351 71.3833 3.20776 68.6782 3.20776ZM68.6782 9.80622C67.2884 9.80622 66.463 8.76133 66.463 7.48135C66.463 6.20136 67.2884 5.15822 68.6782 5.15822C70.068 5.15822 70.8952 6.2031 70.8952 7.48135C70.8952 8.75959 70.084 9.80622 68.6782 9.80622Z"
            fill="white"></path>
        <path
            d="M8.36026 3.31396H6.06696V9.6721H2.65896V3.31396H0.367432V11.6208H7.68753V13.93H9.88853V9.6721H8.36026V3.31396Z"
            fill="white"></path>
        <path
            d="M78.7816 2.42936C80.6453 2.42936 81.6393 1.49941 81.776 0H79.9886C79.9265 0.539858 79.6212 0.989159 78.7816 0.989159C77.9864 0.989159 77.6349 0.539858 77.5728 0H75.7925C75.9221 1.49941 76.932 2.42936 78.7816 2.42936Z"
            fill="white"></path>
        <path
            d="M79.071 3.31396L77.3297 9.59721L77.1771 10.872H76.7333L76.8238 8.39734V3.31396H74.5625V11.6208H78.8882L80.6153 5.33756L80.7679 4.0628H81.2116L81.1194 6.53744V11.6208H83.3807V3.31396H79.071Z"
            fill="white"></path>
        <path
            d="M17.5032 5.33756L17.6558 4.0628H18.0978L18.0073 6.53744V11.6208H20.2686V3.31396H15.9589L14.2159 9.59721L14.0632 10.872H13.6195L13.7118 8.39734V3.31396H11.4504V11.6208H15.7761L17.5032 5.33756Z"
            fill="white"></path>
        <path
            d="M26.1902 11.6207H26.4813V14.6195H28.7284V11.6207H29.0178C31.9075 11.6207 33.4961 9.86705 33.4961 7.4673C33.4961 5.09715 31.8755 3.35915 29.1101 3.31387H28.7284V0.165283H26.4813V3.31387H26.0926C23.2952 3.35915 21.7065 5.09715 21.7065 7.4673C21.7136 9.86705 23.3324 11.6207 26.1902 11.6207ZM28.7284 5.11282H29.0178C30.5017 5.1581 31.1886 6.17686 31.1886 7.4673C31.1886 8.78733 30.5017 9.79043 29.0178 9.8357H28.7284V5.11282ZM26.176 5.11282H26.4813V9.8357H26.1458C24.7081 9.79043 24.0052 8.79082 24.0052 7.4673C24.0052 6.17686 24.7081 5.1581 26.176 5.11282Z"
            fill="white"></path>
        <path d="M0 25.4011H2.2933V19.043H5.9143V25.4011H8.2076V17.0942H0V25.4011Z" fill="white"></path>
        <path
            d="M45.117 19.3286H43.2071V17.0942H40.9138V25.4011H45.117C47.302 25.4011 48.4895 24.1821 48.4895 22.357C48.4895 20.5319 47.302 19.3286 45.117 19.3286ZM44.7815 23.4524H43.2071V21.2181H44.7815C45.8962 21.2181 46.2015 21.6221 46.2015 22.3431C46.2015 23.0327 45.8962 23.4524 44.7815 23.4524Z"
            fill="white"></path>
        <path d="M52.0875 17.0942H49.7942V25.4011H52.0875V17.0942Z" fill="white"></path>
        <path
            d="M59.4074 21.2181V20.7984C60.9818 20.558 61.4398 19.9886 61.4398 18.9837C61.4398 17.8744 60.4919 17.0942 58.7649 17.0942H53.9209V25.4011H58.9033C60.8292 25.4011 61.8977 24.6662 61.8977 23.2713C61.8977 22.0731 61.2712 21.427 59.4074 21.2181ZM56.1822 18.78H58.1347C58.8838 18.78 59.1287 19.0952 59.1287 19.5445C59.1287 19.9938 58.8838 20.2951 58.1347 20.2951H56.1822V18.78ZM58.3832 23.7293H56.1822V21.953H58.3832C59.3009 21.953 59.576 22.3117 59.576 22.8516C59.576 23.3914 59.3009 23.7223 58.3832 23.7223V23.7293Z"
            fill="white"></path>
        <path
            d="M49.604 3.20776C46.8989 3.20776 45.0955 4.88829 45.0955 7.48135C45.0955 10.0744 46.8989 11.7619 49.604 11.7619C52.3091 11.7619 54.1125 10.0831 54.1125 7.48831C54.1125 4.89351 52.3091 3.20776 49.604 3.20776ZM49.604 9.80622C48.2141 9.80622 47.3888 8.76133 47.3888 7.48135C47.3888 6.20136 48.2141 5.15822 49.604 5.15822C50.9938 5.15822 51.8298 6.20833 51.8298 7.48135C51.8298 8.75437 51.0098 9.80622 49.604 9.80622Z"
            fill="white"></path>
        <path
            d="M44.02 7.48135C44.02 4.88829 42.2166 3.20776 40.5818 3.20776C39.0376 3.20776 38.1359 4.0785 37.8164 5.17215H37.2963V3.31399H35.0083V14.6197H37.3016V9.94205H37.8217C38.127 11.0218 39.0287 11.7549 40.5871 11.7549C42.2219 11.7619 44.02 10.0761 44.02 7.48135ZM39.5115 9.80622C38.1217 9.80622 37.2963 8.76133 37.2963 7.48135C37.2963 6.20136 38.1217 5.15822 39.5115 5.15822C40.9013 5.15822 41.7285 6.2031 41.7285 7.48135C41.7285 8.75959 40.9226 9.80622 39.5168 9.80622H39.5115Z"
            fill="white"></path>
        <path
            d="M60.9747 7.43778V7.01809C62.5491 6.77776 63.0124 6.2083 63.0124 5.20347C63.0124 4.0924 62.0645 3.31396 60.3375 3.31396H55.4917V11.6208H60.4741C62.4 11.6208 63.4703 10.8859 63.4703 9.49098C63.4668 8.29111 62.8349 7.64676 60.9747 7.43778ZM57.7513 4.99971H59.7038C60.4528 4.99971 60.696 5.31492 60.696 5.76422C60.696 6.21352 60.4528 6.5148 59.7038 6.5148H57.7513V4.99971ZM59.9523 9.94899H57.7513V8.17268H59.9523C60.8682 8.17268 61.1433 8.53143 61.1433 9.07129C61.1433 9.61114 60.8682 9.94202 59.9523 9.94202V9.94899Z"
            fill="white"></path>
        <path
            d="M36.1 16.9863C34.5557 16.9863 33.654 17.8571 33.3328 18.9507H32.8145V17.0943H30.53V28.4H32.8233V23.7224H33.3416C33.6487 24.8021 34.5504 25.537 36.1089 25.537C37.7436 25.537 39.547 23.8565 39.547 21.2634C39.547 18.6703 37.7348 16.9863 36.1 16.9863ZM35.035 23.583C33.6452 23.583 32.8198 22.5382 32.8198 21.2599C32.8198 19.9817 33.6452 18.935 35.035 18.935C36.4248 18.935 37.252 19.9799 37.252 21.2599C37.252 22.5399 36.4355 23.5865 35.0297 23.5865L35.035 23.583Z"
            fill="white"></path>
        <path
            d="M24.6372 16.9863C21.9321 16.9863 20.1287 18.6651 20.1287 21.2599C20.1287 23.8547 21.9321 25.5335 24.6372 25.5335C27.3423 25.5335 29.1457 23.853 29.1457 21.2599C29.1457 18.6669 27.3352 16.9863 24.6372 16.9863ZM24.6372 23.583C23.2456 23.583 22.422 22.5382 22.422 21.2599C22.422 19.9817 23.2456 18.935 24.6372 18.935C26.0288 18.935 26.8541 19.9799 26.8541 21.2599C26.8541 22.5399 26.043 23.5865 24.6372 23.5865V23.583Z"
            fill="white"></path>
        <path
            d="M200.043 27.1182H120.073C118.372 27.1182 116.687 26.7894 115.115 26.1505C113.543 25.5116 112.114 24.5752 110.911 23.3947C109.708 22.2142 108.753 20.8128 108.102 19.2704C107.451 17.728 107.116 16.0749 107.116 14.4054C107.116 12.7359 107.451 11.0828 108.102 9.54044C108.753 7.99805 109.708 6.5966 110.911 5.41611C112.114 4.23562 113.543 3.29921 115.115 2.66033C116.687 2.02145 118.372 1.69263 120.073 1.69263H200.043C201.744 1.69263 203.429 2.02145 205.001 2.66033C206.573 3.29921 208.002 4.23562 209.205 5.41611C210.408 6.5966 211.363 7.99805 212.014 9.54044C212.665 11.0828 213 12.7359 213 14.4054C213 16.0749 212.665 17.728 212.014 19.2704C211.363 20.8128 210.408 22.2142 209.205 23.3947C208.002 24.5752 206.573 25.5116 205.001 26.1505C203.429 26.7894 201.744 27.1182 200.043 27.1182ZM120.073 2.90121C118.521 2.88248 116.98 3.16627 115.541 3.73613C114.101 4.306 112.791 5.1506 111.687 6.22097C110.582 7.29133 109.705 8.56616 109.107 9.97154C108.508 11.3769 108.2 12.8849 108.2 14.408C108.2 15.9311 108.508 17.4391 109.107 18.8445C109.705 20.2499 110.582 21.5247 111.687 22.5951C112.791 23.6654 114.101 24.51 115.541 25.0799C116.98 25.6498 118.521 25.9336 120.073 25.9148H200.043C201.595 25.9336 203.136 25.6498 204.575 25.0799C206.015 24.51 207.325 23.6654 208.429 22.5951C209.534 21.5247 210.411 20.2499 211.009 18.8445C211.608 17.4391 211.916 15.9311 211.916 14.408C211.916 12.8849 211.608 11.3769 211.009 9.97154C210.411 8.56616 209.534 7.29133 208.429 6.22097C207.325 5.1506 206.015 4.306 204.575 3.73613C203.136 3.16627 201.595 2.88248 200.043 2.90121H120.073Z"
            fill="#03FE33"></path>
        <path
            d="M126.075 9.99787C126.944 9.97879 127.798 10.221 128.523 10.692C129.247 11.163 129.808 11.8402 130.129 12.6327L128.102 13.3293C127.941 12.9322 127.661 12.5923 127.299 12.3547C126.937 12.1171 126.51 11.993 126.075 11.9988C124.816 11.9988 123.852 12.9932 123.852 14.308C123.852 15.6228 124.816 16.6329 126.075 16.6329C126.512 16.6351 126.939 16.5077 127.301 16.2675C127.662 16.0272 127.942 15.6854 128.102 15.2867L130.129 15.9833C129.807 16.7752 129.247 17.4517 128.522 17.922C127.797 18.3923 126.943 18.634 126.075 18.6147C123.508 18.6147 121.564 16.7531 121.564 14.3167C121.564 11.8804 123.508 9.99787 126.075 9.99787Z"
            fill="white"></path>
        <path
            d="M139.934 15.0709H133.429C133.569 15.5084 133.835 15.8968 134.195 16.1894C134.555 16.4821 134.994 16.6665 135.458 16.7206C135.923 16.7746 136.393 16.6961 136.813 16.4942C137.233 16.2924 137.584 15.976 137.825 15.5829L139.641 16.3857C138.904 17.6848 137.499 18.5991 135.669 18.5991C133.102 18.5991 131.156 16.7375 131.156 14.3011C131.156 11.8648 133.07 10.0032 135.594 10.0032C138.414 9.99796 140.392 12.3072 139.934 15.0709ZM133.462 13.413H137.722C137.591 12.9582 137.309 12.559 136.922 12.2777C136.535 11.9963 136.063 11.8487 135.582 11.8579C135.105 11.8596 134.642 12.0118 134.26 12.2918C133.878 12.5719 133.599 12.965 133.462 13.413Z"
            fill="white"></path>
        <path
            d="M148.301 16.3002C148.301 17.7108 146.75 18.5937 144.657 18.5937C143.12 18.5937 141.64 18.0956 140.719 17.2005L141.927 15.7429C142.696 16.4639 143.905 16.7355 144.657 16.7355C145.589 16.7355 146.013 16.3872 146.013 15.9658C146.013 15.3406 145.326 15.1804 144.331 15.1804H143.104V13.4128H144.331C145.326 13.4128 146.013 13.2526 146.013 12.6274C146.013 12.2112 145.589 11.8577 144.657 11.8577C143.905 11.8577 142.696 12.1311 141.927 12.8677L140.719 11.3927C141.633 10.4941 143.12 9.99951 144.657 9.99951C146.75 9.99951 148.301 10.8807 148.301 12.3087C148.301 13.223 147.591 14.0728 145.932 14.2975C147.582 14.5204 148.301 15.3702 148.301 16.3002Z"
            fill="white"></path>
        <path
            d="M154.136 9.9978C156.702 9.9978 158.648 11.8577 158.648 14.2958C158.648 16.7338 156.695 18.5937 154.136 18.5937C151.576 18.5937 149.633 16.7321 149.633 14.2958C149.633 11.8594 151.569 9.9978 154.136 9.9978ZM154.136 16.6154C155.41 16.6154 156.358 15.621 156.358 14.2905C156.358 12.9601 155.41 11.9813 154.136 11.9813C152.861 11.9813 151.913 12.981 151.913 14.2958C151.913 15.6106 152.877 16.6206 154.136 16.6206V16.6154Z"
            fill="white"></path>
        <path
            d="M160.165 18.4317V10.158H162.373V13.3483H166.197V10.158H168.403V18.4317H166.197V15.2448H162.373V18.4317H160.165Z"
            fill="white"></path>
        <path
            d="M171.508 10.0205C171.895 10.0251 172.265 10.1792 172.537 10.4494C172.81 10.7196 172.963 11.0842 172.963 11.4642C172.963 11.8448 172.809 12.2098 172.535 12.4789C172.26 12.748 171.888 12.8992 171.501 12.8992C171.113 12.8992 170.741 12.748 170.466 12.4789C170.192 12.2098 170.038 11.8448 170.038 11.4642C170.037 11.2745 170.074 11.0865 170.148 10.911C170.221 10.7356 170.33 10.5761 170.466 10.4419C170.603 10.3077 170.765 10.2014 170.944 10.129C171.123 10.0567 171.314 10.0198 171.508 10.0205ZM171.508 15.7134C171.895 15.718 172.265 15.8721 172.537 16.1423C172.81 16.4125 172.963 16.777 172.963 17.1571C172.963 17.5377 172.809 17.9027 172.535 18.1718C172.26 18.4409 171.888 18.5921 171.501 18.5921C171.113 18.5921 170.741 18.4409 170.466 18.1718C170.192 17.9027 170.038 17.5377 170.038 17.1571C170.036 16.9668 170.073 16.7781 170.146 16.6018C170.219 16.4255 170.327 16.2653 170.464 16.1303C170.6 15.9953 170.763 15.8884 170.942 15.8156C171.122 15.7428 171.314 15.7057 171.508 15.7064V15.7134Z"
            fill="white"></path>
        <path
            d="M183.929 10.158H187.933V18.4317H185.858V10.6386L183.569 18.4317H179.564V10.158H181.641V18.0155L183.929 10.158Z"
            fill="white"></path>
        <path
            d="M194.142 10.158H198.148V18.4317H196.072V10.6386L193.784 18.4317H189.779V10.158H191.854V18.0155L194.142 10.158Z"
            fill="white"></path>
    </g>
    <defs>
        <clipPath id="clip0_3_496">
            <rect width="213" height="28.4" fill="white"></rect>
        </clipPath>
    </defs>
</svg>